<svg width="14" height="14" viewBox="0 0 14 14" fill="none" xmlns="http://www.w3.org/2000/svg">
<path d="M2.16667 0.25C1.38426 0.25 0.75 0.884263 0.75 1.66667C0.75 2.44907 1.38426 3.08333 2.16667 3.08333C2.94907 3.08333 3.58333 2.44907 3.58333 1.66667C3.58333 0.884263 2.94907 0.25 2.16667 0.25Z" fill="white"/>
<path d="M0.833333 4.25C0.78731 4.25 0.75 4.28731 0.75 4.33333V13C0.75 13.046 0.78731 13.0833 0.833333 13.0833H3.5C3.54602 13.0833 3.58333 13.046 3.58333 13V4.33333C3.58333 4.28731 3.54602 4.25 3.5 4.25H0.833333Z" fill="white"/>
<path d="M5.16667 4.25C5.12064 4.25 5.08333 4.28731 5.08333 4.33333V13C5.08333 13.046 5.12064 13.0833 5.16667 13.0833H7.83333C7.87936 13.0833 7.91667 13.046 7.91667 13V8.33333C7.91667 8.00181 8.04836 7.68387 8.28278 7.44945C8.5172 7.21503 8.83515 7.08333 9.16667 7.08333C9.49819 7.08333 9.81613 7.21503 10.0506 7.44945C10.285 7.68387 10.4167 8.00181 10.4167 8.33333V13C10.4167 13.046 10.454 13.0833 10.5 13.0833H13.1667C13.2127 13.0833 13.25 13.046 13.25 13V7.2535C13.25 5.63567 11.8429 4.37 10.2332 4.51633C9.7368 4.56146 9.24597 4.68487 8.78765 4.8813L7.91667 5.25457V4.33333C7.91667 4.28731 7.87936 4.25 7.83333 4.25H5.16667Z" fill="white"/>
</svg>
