<svg width="16" height="16" viewBox="0 0 16 16" fill="none" xmlns="http://www.w3.org/2000/svg">
<path d="M14.5398 4.15151C14.5785 4.09766 14.5214 4.02814 14.4596 4.05209C14.0205 4.22231 13.5615 4.33716 13.0934 4.39375C13.6146 4.08234 14.0169 3.60829 14.2399 3.04704C14.2626 2.98987 14.2002 2.93881 14.1464 2.96855C13.6619 3.23611 13.1394 3.42878 12.5966 3.53974C12.5739 3.54438 12.5505 3.53665 12.5345 3.51981C12.1272 3.09003 11.5911 2.80387 11.0066 2.70499C10.4098 2.60402 9.79638 2.70399 9.26254 2.98921C8.72871 3.27443 8.30464 3.72877 8.05685 4.28098C7.82124 4.80602 7.75766 5.39129 7.87387 5.95338C7.88289 5.99699 7.84875 6.03816 7.8043 6.0354C6.74826 5.96981 5.71646 5.68893 4.77245 5.20966C3.83085 4.73161 2.99703 4.06657 2.32178 3.25555C2.29181 3.21956 2.23501 3.22422 2.21318 3.26565C2.00306 3.66436 1.89305 4.10876 1.89335 4.56042C1.8925 5.01001 2.00283 5.45283 2.21452 5.84946C2.42621 6.24609 2.7327 6.58423 3.10669 6.83375C2.71007 6.82296 2.32118 6.72491 1.96752 6.54714C1.92194 6.52423 1.86727 6.55685 1.86964 6.6078C1.89722 7.20063 2.11485 7.79578 2.49156 8.2524C2.89244 8.73831 3.44886 9.07085 4.06668 9.19375C3.82886 9.26613 3.58194 9.30429 3.33335 9.30709C3.19806 9.30551 3.06303 9.29552 2.92904 9.2772C2.87936 9.27041 2.8388 9.3176 2.85619 9.36463C3.04047 9.86296 3.36602 10.2978 3.79407 10.6152C4.2517 10.9545 4.80374 11.1428 5.37335 11.1538C4.41149 11.9106 3.22394 12.3237 2.00002 12.3271C1.87426 12.3275 1.74855 12.3234 1.62314 12.3149C1.55247 12.3101 1.51996 12.4042 1.58088 12.4404C2.77339 13.1481 4.13641 13.5221 5.52669 13.5204C6.55315 13.5311 7.57144 13.3371 8.52209 12.9498C9.47275 12.5625 10.3367 11.9897 11.0635 11.2648C11.7903 10.5398 12.3653 9.67735 12.7551 8.72769C13.1448 7.77803 13.3414 6.76024 13.3334 5.73375V5.41387C13.3334 5.39282 13.3433 5.37303 13.3601 5.36034C13.8123 5.01892 14.21 4.61129 14.5398 4.15151Z" fill="white"/>
</svg>
