<svg width="31" height="24" viewBox="0 0 31 24" fill="none" xmlns="http://www.w3.org/2000/svg">
<path d="M15.5001 2.94171C19.04 2.94171 22.2215 4.1636 24.3641 6.36147C26.1265 6.59293 27.789 7.31263 29.1639 8.43925C26.7602 3.38777 21.7811 0.562744 15.5001 0.562744C9.3049 0.562744 4.29153 3.38395 1.85919 8.42019C3.11965 7.39372 4.62169 6.70668 6.22253 6.42438C8.3251 4.13119 11.6381 2.94171 15.5001 2.94171Z" fill="white"/>
<path d="M23.1251 23.4373C21.1421 23.4372 19.2371 22.6645 17.8143 21.2832L17.8105 21.2794C17.6463 21.1559 17.47 21.0492 17.2844 20.9611C16.725 20.704 16.1158 20.5731 15.5002 20.5779C14.711 20.5779 14.1105 20.7743 13.7178 20.9611C13.5315 21.0491 13.3546 21.1558 13.1898 21.2794L13.186 21.2832C12.2897 22.1534 11.1934 22.79 9.99344 23.137C8.79346 23.4841 7.52659 23.5311 6.30421 23.2738C5.08184 23.0165 3.9414 22.4628 2.98318 21.6614C2.02496 20.86 1.2783 19.8355 0.808855 18.6779C0.339413 17.5203 0.161567 16.2651 0.290953 15.0226C0.420339 13.7802 0.852996 12.5885 1.55088 11.5525C2.24876 10.5165 3.1905 9.66777 4.29328 9.08101C5.39606 8.49426 6.62611 8.18743 7.87528 8.1875H23.1251C25.1473 8.1875 27.0867 8.99083 28.5167 10.4208C29.9466 11.8507 30.7499 13.7901 30.7499 15.8124C30.7499 17.8346 29.9466 19.7741 28.5167 21.204C27.0867 22.6339 25.1473 23.4373 23.1251 23.4373Z" fill="white"/>
</svg>
